# xmcd CD database file
# Copyright (C) 1997 Ti Kan
# 
# Track frame offsets:
#     187
#     11732
#     24507
#     36877
#     48940
#     61275
#     74195
#     87682
#     97557
#     109952
#     122602
#     134737
#     145805
#     157092
#     166647
#     180587
# 
# Disc length: 2574 seconds
# 
# Revision: 1
# Processed by: cddbd v1.4b41PL1 Copyright (c) Steve Scherf et al.
# Submitted via: DiscPlay 4.0.0
# 
DISCID=de0a0c10
DTITLE=EDDY ARNOLD - LAST OF THE LOVE SONG SINGERS: THEN and NOW DISC 1: THEN
DYEAR=1900
DGENRE=
TTITLE0=WELCOME TO MY WORLD
TTITLE1=I REALLY DON'T WANT TO KNOW
TTITLE2=CATTLE CALL
TTITLE3=MAKE THE WORLD GO AWAY
TTITLE4=YOU DON'T KNOW ME
TTITLE5=JUST A LITTLE LOVIN' ( WILL GO A LONG WAY)
TTITLE6=THE TIP OF MY FINGERS
TTITLE7=WHAT'S HE DOIN IN MY WORLD
TTITLE8=THAT'S HOW MUCH I LOVE YOU
TTITLE9=THEN YOU CAN TELL ME GOODBYE
TTITLE10=I WANT TO GO WITH YOU
TTITLE11=JUST CALL ME LONESOME
TTITLE12=TURN THE WORLD AROUND
TTITLE13=MISTY BLUE
TTITLE14=THEY DON'T MAKE LOVE LIKE THEY USED TO
TTITLE15=LONELY AGAIN
EXTD=
EXTT0=
EXTT1=
EXTT2=
EXTT3=
EXTT4=
EXTT5=
EXTT6=
EXTT7=
EXTT8=
EXTT9=
EXTT10=
EXTT11=
EXTT12=
EXTT13=
EXTT14=
EXTT15=
PLAYORDER=
